<?xml version="1.0" encoding="UTF-8" standalone="no"?>

<svg
   version="1.1"
   id="svg1"
   width="100mm"
   height="100mm"
   viewBox="0 0 100 100"
   xmlns="http://www.w3.org/2000/svg"
   xmlns:svg="http://www.w3.org/2000/svg">
  <defs />
  <g
     id="g1"
     transform="translate(0,-0.00535626)">
    <g
       id="group-R5">
      <path
         id="path27"
         d="M 51.8255 45.6153 L 68.834 4.08368 C 70.0708 4.59024 71.3024 5.15402 72.4951 5.75926 L 57.6602 34.9884 C 57.4832 34.8941 57.3053 34.8036 57.1277 34.7172 Z M 52.3721 46.215 L 76.0177 7.73167 C 77.1554 8.4306 78.2786 9.18496 79.3565 9.9736 L 59.9681 36.4648 C 59.8104 36.3454 59.6511 36.2291 59.4909 36.1163 Z M 48.6159 47.207 L 43.2236 34.9874 L 30.3353 4.35381 C 31.5829 3.82911 32.8695 3.34926 34.1601 2.92783 Z M 49.3348 47.8431 L 45.6655 33.7051 C 45.6603 33.7067 45.6551 33.7079 45.6499 33.7093 L 37.9648 1.85012 C 39.2002 1.55209 40.4667 1.29691 41.729 1.09138 Z M 48.6556 48.2155 L 40.6585 35.9098 L 40.6577 35.9102 L 22.9411 8.23822 C 24.1165 7.48546 25.3407 6.77457 26.5787 6.12507 L 41.8347 35.2112 C 41.8321 35.2126 41.8295 35.214 41.8271 35.2152 L 42.1393 35.7924 Z M 48.0288 48.3696 L 38.3826 40.9339 L 36.6471 39.5482 C 36.6393 39.5582 36.6315 39.5679 36.6235 39.5777 L 10.6222 19.5348 C 11.4626 18.4446 12.3594 17.3776 13.2868 16.3639 L 39.397 40.2619 Z M 47.4323 48.4735 L 35.9882 42.3298 L 35.1067 41.8344 C 35.1035 41.84 35.1003 41.8455 35.0971 41.8515 L 6.21324 26.3462 C 6.84595 25.1674 7.53428 24.0012 8.25872 22.8798 L 37.3434 41.6709 Z M 54.6474 48.7603 L 65.9928 44.5199 C 65.9196 44.3253 65.8433 44.1307 65.7627 43.9376 L 96.2719 31.8557 C 96.7631 33.0969 97.2099 34.3734 97.5994 35.6494 Z M 50.9663 48.9822 L 82.4937 12.4693 C 83.4995 13.3379 84.4829 14.2583 85.4155 15.2049 L 62.0161 38.2727 C 61.9593 38.2143 61.9021 38.1561 61.8446 38.0987 Z M 52.3759 49.0052 L 64.7277 41.8463 C 64.6609 41.7309 64.5925 41.6165 64.5228 41.5021 L 92.7328 24.6696 C 93.4152 25.8125 94.0587 26.9967 94.646 28.1892 Z M 47.5629 49.0915 L 3.04273 33.5628 C 3.47111 32.3344 3.95259 31.1091 4.47404 29.92 L 34.6186 43.1374 Z M 49.2377 49.1114 L 49.0343 48.7988 L 48.5298 47.5993 L 49.0696 48.5963 Z M 49.3156 49.3508 L 49.2538 49.2837 L 49.3106 49.3357 Z M 49.082 49.3588 L 48.632 49.1172 L 47.6285 48.3164 L 48.7285 49.0269 Z M 49.5905 49.4158 L 49.2556 48.6569 L 48.9187 47.26 L 49.522 48.994 Z M 49.4641 49.4758 L 49.4504 49.4631 Z M 49.3216 49.4856 L 49.1561 49.3032 L 49.2616 49.3712 Z M 54.7941 49.5201 L 66.7386 47.1322 C 66.6995 46.9363 66.6564 46.7393 66.6096 46.5429 L 98.6187 39.5488 C 98.9044 40.8568 99.1402 42.1926 99.3188 43.5193 Z M 49.4468 49.5548 L 49.3685 49.5127 L 49.371 49.5195 L 49.3655 49.5111 L 49.325 49.4892 L 49.2805 49.3833 L 49.2861 49.3871 L 49.2742 49.3684 L 49.2498 49.311 L 49.2249 49.2916 L 49.1968 49.2474 L 49.2163 49.285 L 48.9622 49.0889 L 48.5762 48.6633 L 49.1715 49.2083 L 49.1416 49.1616 L 41.1575 40.4792 L 38.513 37.5616 C 38.5062 37.568 38.4993 37.5744 38.4923 37.5808 L 16.2506 13.3935 C 17.2832 12.4438 18.3697 11.5286 19.4806 10.6725 L 49.1306 49.1443 L 49.078 49.0622 L 49.1645 49.1866 L 49.1553 49.1766 L 49.2389 49.2848 L 49.2289 49.2605 L 49.2359 49.2671 L 49.2985 49.3482 L 49.2724 49.3283 Z M 49.8981 49.5771 L 48.387 33.2291 C 48.3723 33.2305 48.3579 33.2319 48.343 33.2333 L 45.3983 0.628278 C 46.5669 0.52262 47.7587 0.455238 48.9402 0.427727 L 49.7775 36.2074 L 49.9384 49.4944 Z M 49.6039 49.5835 L 49.4851 49.4922 L 49.4408 49.424 L 49.3792 49.1684 Z M 49.1918 49.6594 L 48.7517 49.5059 L 47.3649 48.7265 L 48.631 49.2815 Z M 49.6366 49.6999 L 49.4586 49.4986 L 49.5114 49.5326 L 49.4897 49.4996 L 49.5612 49.5649 L 49.6113 49.5972 L 49.6458 49.6616 L 49.6292 49.6525 Z M 49.7719 49.7135 L 49.6944 49.6509 L 49.7666 49.6977 Z M 49.8314 49.7147 L 49.7875 49.2304 L 49.8617 49.6531 Z M 49.8242 49.7292 L 49.824 49.7286 L 49.8272 49.7234 Z M 49.6424 49.7342 L 49.6338 49.7212 L 49.6408 49.724 Z M 49.8156 49.747 L 49.814 49.7458 L 49.8214 49.733 L 49.8222 49.7334 Z M 49.4538 49.7735 L 49.4398 49.7623 L 49.4317 49.7434 L 49.4037 49.7334 L 49.0894 49.4824 L 49.3224 49.5847 L 49.393 49.6511 L 49.3746 49.6076 L 49.3884 49.6138 L 49.4622 49.7539 L 49.4454 49.7479 Z M 49.5263 49.7761 L 49.5255 49.7753 Z M 49.7098 49.7792 L 49.6713 49.7378 L 49.6922 49.7468 Z M 48.6558 49.8522 L 1.06181 41.0278 C 1.29527 39.7693 1.5795 38.505 1.90704 37.2696 L 33.531 45.6516 C 33.5282 45.6616 33.5252 45.672 33.5226 45.6819 Z M 49.7502 49.8544 L 49.75 49.8542 L 49.7502 49.8542 Z M 49.6631 49.8624 L 49.6121 49.8062 L 49.5379 49.7802 L 49.52 49.7525 L 49.5042 49.6871 L 49.4699 49.6493 L 49.498 49.6616 L 49.4839 49.6026 L 49.5453 49.6824 L 49.5612 49.6893 L 49.6565 49.8215 L 49.6513 49.8197 L 49.6575 49.8281 Z M 49.7957 49.87 L 49.7891 49.8656 L 49.7743 49.8319 L 49.7688 49.8434 L 49.7614 49.8353 L 49.7698 49.8213 L 49.747 49.7707 L 49.7883 49.789 L 49.7947 49.7786 L 49.7971 49.7852 L 49.7941 49.7914 L 49.8003 49.794 L 49.8164 49.8406 Z M 49.4857 49.8711 L 49.4777 49.8524 L 49.4799 49.8538 Z M 49.8308 49.8823 L 49.8218 49.8793 L 49.8258 49.8682 Z M 49.5046 49.9294 L 49.3563 49.846 L 49.4889 49.8811 Z M 49.7257 49.9316 L 49.7129 49.9176 L 49.7189 49.9074 L 49.7303 49.9224 Z M 49.7408 49.9481 L 49.7405 49.9479 L 49.7408 49.9479 Z M 50.742 49.9523 L 51.1046 49.742 L 53.6356 48.7396 L 51.6582 49.6726 Z M 51.3851 49.9794 L 52.0934 49.7147 L 55.1268 49.0518 L 52.2838 49.8584 Z M 50.133 49.9878 L 50.1101 49.9738 L 50.1374 49.9419 L 50.1657 49.9553 Z M 49.5325 50.0147 L 49.3457 49.98 L 47.9756 49.48 L 48.9961 49.7503 L 49.5255 49.9942 Z M 49.8646 50.0839 L 49.8644 50.0833 L 49.865 50.0837 Z M 49.874 50.1092 L 49.8658 50.0984 Z M 49.8341 50.1146 L 49.7514 50.0681 L 49.761 50.0569 L 49.7518 50.0554 L 49.7576 50.041 L 49.7684 50.0482 L 49.7801 50.0342 L 49.765 50.0221 L 49.7714 50.0063 L 49.7893 50.0233 L 49.7989 50.0121 L 49.7781 49.9892 L 49.7791 49.9862 L 49.7993 50.0115 L 49.8044 50.0053 L 49.8585 50.0751 L 49.8553 50.0745 L 49.8032 50.0167 L 49.8461 50.0727 L 49.8411 50.0721 L 49.8593 50.0894 L 49.8549 50.0938 L 49.8234 50.0687 L 49.7891 50.0623 L 49.8471 50.1014 Z M 49.8973 50.1267 L 49.8942 50.1215 L 49.8973 50.1261 Z M 49.9671 50.1295 Z M 49.6781 49.9523 L 49.6808 49.9718 L 49.6878 49.9603 Z M 49.624 50.1409 L 49.6115 50.1315 L 49.6069 50.1375 L 49.5969 50.1357 L 49.5917 50.1235 L 49.5987 50.112 L 49.6073 50.1144 L 49.6043 50.1022 L 49.6178 50.0795 L 49.5969 50.0719 L 49.5858 50.0245 L 49.5473 50.0175 L 49.5403 50.0007 L 49.5848 50.0215 L 49.5716 49.967 L 49.5118 49.9333 L 49.4899 49.8813 L 49.5357 49.8935 L 49.5696 49.9589 L 49.5568 49.9058 L 49.6645 49.9782 L 49.6256 49.9174 L 49.6382 49.9208 L 49.6167 49.9034 L 49.5485 49.7972 L 49.6713 49.9124 L 49.6743 49.9302 L 49.7002 49.9395 L 49.7012 49.9373 L 49.7205 49.9425 L 49.7151 49.9537 L 49.7285 49.9658 L 49.7161 49.983 L 49.705 49.9742 L 49.6936 49.9979 L 49.7018 50.0033 L 49.6906 50.0189 L 49.6878 50.0149 L 49.689 50.0215 L 49.683 50.0296 L 49.6791 50.0274 L 49.6727 50.0408 L 49.6436 50.0354 L 49.6559 50.0145 L 49.575 49.969 L 49.6061 50.0284 L 49.5959 50.0264 L 49.6083 50.0322 L 49.6256 50.0657 L 49.6376 50.0456 L 49.6635 50.0575 L 49.642 50.0882 L 49.6366 50.0863 L 49.6396 50.0918 L 49.6208 50.1181 L 49.6336 50.1215 Z M 49.891 50.1467 L 49.8694 50.1343 L 49.8676 50.1152 L 49.8946 50.1355 Z M 49.8021 50.1467 L 49.7632 50.1325 L 49.7373 50.092 L 49.7375 50.0916 L 49.8196 50.1293 Z M 49.6171 50.155 L 49.6171 50.1544 L 49.6174 50.1544 Z M 49.6155 50.1582 L 49.6049 50.155 L 49.6165 50.156 Z M 49.6414 50.159 L 49.6174 50.1562 Z M 49.7831 50.1628 L 49.7825 50.1626 Z M 49.9528 50.165 L 49.952 50.1584 L 49.9651 50.1411 L 49.9643 50.1481 L 49.9675 50.1455 L 49.9623 50.1554 L 49.9623 50.155 Z M 49.885 50.1656 L 49.872 50.165 L 49.8708 50.153 L 49.8868 50.1602 Z M 49.9394 50.167 L 49.9388 50.1668 L 49.9398 50.1666 Z M 49.9426 50.1672 L 49.9416 50.167 L 49.9422 50.1666 Z M 49.9564 50.1676 L 49.953 50.1662 L 49.9569 50.1658 Z M 49.9476 50.17 L 49.948 50.1692 L 49.9484 50.1694 Z M 49.9599 50.1716 L 49.9611 50.1702 Z M 49.9472 50.1732 L 49.9476 50.172 L 49.9488 50.1732 Z M 49.9402 50.1742 L 49.9398 50.174 L 49.9422 50.17 L 49.9412 50.169 L 49.9426 50.1672 L 49.9434 50.168 L 49.9438 50.1672 L 49.9428 50.1672 L 49.9438 50.1666 L 49.9442 50.1668 L 49.9458 50.1664 L 49.9448 50.1656 L 49.9468 50.1628 L 49.9468 50.1664 L 49.9498 50.1602 L 49.9508 50.1662 L 49.952 50.1662 L 49.9512 50.1668 L 49.9512 50.1674 L 49.948 50.168 L 49.948 50.1674 L 49.9448 50.1672 L 49.9468 50.171 L 49.9468 50.171 L 49.9468 50.1734 L 49.945 50.1736 L 49.9446 50.1732 Z M 49.8818 50.1756 L 49.8724 50.1702 L 49.8836 50.1696 Z M 49.9599 50.1774 L 49.9589 50.1764 Z M 49.8736 50.1829 L 49.8736 50.1821 L 49.8772 50.1825 Z M 49.9342 50.1833 L 49.9342 50.1831 L 49.9346 50.1821 L 49.9352 50.1825 Z M 49.956 50.1853 L 49.9546 50.1839 L 49.9554 50.1825 L 49.9542 50.1819 L 49.9564 50.1799 L 49.9575 50.1813 L 49.9593 50.1809 L 49.9593 50.1827 L 49.9593 50.1829 L 49.9589 50.1847 L 49.9577 50.1843 Z M 50.6403 50.1863 L 50.6224 50.1857 L 50.6072 50.1774 Z M 49.9372 50.1879 L 49.936 50.1861 L 49.9366 50.1861 Z M 49.9649 50.1881 L 49.9605 50.1853 L 49.9605 50.1839 Z M 49.9655 50.1885 L 49.9651 50.1883 L 49.9659 50.1879 Z M 49.9663 50.1889 L 49.9655 50.1885 L 49.9697 50.1853 L 49.9673 50.1833 L 49.9659 50.1879 L 49.9667 50.1831 L 49.9633 50.1803 L 49.9607 50.1821 L 49.9631 50.1801 L 49.9609 50.178 L 49.9637 50.1799 L 49.9637 50.1799 L 49.9637 50.1799 L 49.9671 50.1821 L 49.9687 50.1792 L 49.9675 50.1825 L 49.9709 50.1849 L 49.988 50.1746 L 50.0114 50.1696 L 49.9737 50.1867 L 49.9749 50.1875 L 49.9733 50.1883 L 49.9719 50.1873 Z M 49.9655 50.1891 L 49.9655 50.1887 L 49.9659 50.1889 Z M 49.9619 50.1903 L 49.9651 50.1885 L 49.9655 50.1887 Z M 49.9647 50.1925 L 49.9655 50.1923 Z M 49.875 50.1973 L 49.874 50.1885 L 49.8571 50.1853 L 49.8019 50.1929 L 49.7903 50.1748 L 49.8166 50.1776 L 49.7985 50.1742 L 49.871 50.1833 L 49.8623 50.1847 L 49.874 50.1879 L 49.8736 50.1837 L 49.879 50.1845 L 49.8776 50.1889 L 49.883 50.1903 L 49.8776 50.1893 Z M 51.0845 50.1983 L 50.8182 50.1911 L 51.0406 50.1082 L 51.4862 50.0847 Z M 49.9589 50.2105 L 49.9589 50.2057 L 49.9599 50.2069 Z M 51.7972 50.218 L 51.3614 50.2061 L 52.1445 50.0496 L 54.0445 49.9489 Z M 49.8268 50.2314 L 49.8144 50.2126 L 49.874 50.1997 L 49.868 50.2188 Z M 50.863 50.2613 L 50.7089 50.232 L 50.752 50.2158 L 50.7777 50.2228 L 50.8648 50.2609 Z M 49.516 50.2669 L 49.5076 50.2667 L 49.5295 50.2294 L 49.3041 50.2597 L 48.6123 50.237 L 49.5545 50.1871 L 49.572 50.157 L 32.9215 49.6993 C 32.9211 49.7065 32.9211 49.7137 32.9209 49.7206 L 0.23503 48.6451 C 0.277003 47.3708 0.368192 46.082 0.506028 44.8147 L 33.013 48.3491 L 33.0099 48.3782 L 49.5752 50.1516 L 49.5766 50.1498 L 49.5774 50.152 L 49.5957 50.154 L 49.5931 50.1574 L 49.579 50.157 L 49.5836 50.171 L 49.573 50.1861 L 49.5881 50.1853 L 49.5939 50.2027 L 49.5844 50.222 L 49.5439 50.2276 Z M 49.5618 50.2683 L 49.5598 50.2683 L 49.5622 50.2679 Z M 49.6159 50.2701 L 49.5826 50.2691 L 49.5885 50.2619 L 49.6117 50.2569 Z M 49.8495 50.2776 L 49.8471 50.2776 L 49.8507 50.2738 Z M 49.6609 50.2878 L 49.6605 50.2866 L 49.6623 50.2816 L 49.6587 50.2828 L 49.6539 50.2715 L 49.6452 50.2711 L 49.64 50.2509 L 49.645 50.2497 L 49.6318 50.2156 L 49.6306 50.2158 L 49.6294 50.2134 L 49.6306 50.212 L 49.6238 50.1833 L 49.6561 50.1817 L 49.6727 50.1622 L 49.6767 50.1626 L 49.6858 50.1801 L 49.7028 50.1794 L 49.708 50.1662 L 49.7125 50.1666 L 49.7147 50.1784 L 49.7731 50.1756 L 49.7488 50.2001 L 49.7187 50.2039 L 49.7221 50.2264 L 49.7143 50.2344 L 49.7143 50.2346 L 49.7235 50.2326 L 49.7285 50.2615 L 49.7281 50.2617 L 49.7301 50.2738 L 49.6922 50.2726 Z M 51.0648 50.2986 L 50.9786 50.2826 L 50.993 50.2798 Z M 50.8863 50.3273 L 50.8401 50.3103 L 50.8505 50.3081 L 50.8046 50.2834 L 50.9148 50.2954 L 50.9156 50.2952 L 51.0394 50.3089 L 50.9884 50.3151 L 50.9888 50.3153 L 50.987 50.3151 Z M 49.6796 50.3329 L 49.6705 50.3101 L 49.7319 50.2854 L 49.7353 50.3055 Z M 49.4645 50.3398 L 49.5068 50.2798 Z M 50.5889 50.343 L 50.5867 50.3414 L 50.5889 50.3414 Z M 50.8004 50.3653 L 50.7107 50.3484 L 50.6114 50.3604 L 50.6072 50.357 L 50.6798 50.3424 L 50.6587 50.3384 L 50.7446 50.3295 L 50.752 50.3344 L 50.8692 50.3293 L 50.7641 50.342 Z M 50.5594 50.3665 L 50.5875 50.361 L 50.5875 50.363 Z M 49.6731 50.3869 L 49.6713 50.3805 L 49.6824 50.3801 Z M 50.5827 50.4315 L 50.4593 50.3865 L 50.5379 50.3707 L 50.5861 50.3839 Z M 49.5999 50.4385 L 49.6171 50.3962 L 49.6523 50.3813 L 49.6575 50.3976 Z M 51.3369 50.468 L 51.0436 50.4118 L 50.8883 50.3287 L 51.0075 50.3235 Z M 49.9053 50.5332 L 49.9051 50.5326 L 49.9075 50.5316 Z M 49.0802 50.5438 L 49.4141 50.4114 L 49.3577 50.4917 L 49.3067 50.5165 Z M 49.8062 50.5462 L 49.8194 50.5145 L 49.8571 50.5069 L 49.8619 50.5157 L 49.8603 50.5208 Z M 49.6719 50.4419 L 49.6812 50.4702 L 49.6904 50.4592 L 49.6834 50.4303 Z M 49.5521 50.5599 L 49.5885 50.4828 L 49.5824 50.4836 L 49.5909 50.4616 L 49.6597 50.4038 L 49.6645 50.419 L 49.6783 50.4078 L 49.6739 50.3919 L 49.6992 50.3793 L 49.6966 50.3727 L 49.7193 50.354 L 49.6956 50.3705 L 49.6886 50.3536 L 49.7381 50.3237 L 49.7401 50.336 L 49.7592 50.3201 L 49.7614 50.3239 L 49.7405 50.3384 L 49.7432 50.3532 L 49.7662 50.3337 L 49.7716 50.3434 L 49.7456 50.3691 L 49.747 50.3773 L 49.762 50.3765 L 49.7787 50.357 L 49.7879 50.3745 L 49.7871 50.3755 L 49.7883 50.3755 L 49.8011 50.3998 L 49.8192 50.3741 L 49.8038 50.4052 L 49.807 50.4112 L 49.7923 50.4584 L 49.7626 50.462 L 49.7929 50.4132 L 49.7568 50.4381 L 49.7608 50.4622 L 49.7355 50.4652 L 49.7319 50.4559 L 49.6956 50.4812 L 49.6932 50.4702 L 49.6816 50.4716 L 49.6868 50.4874 L 49.6348 50.524 L 49.6794 50.4718 L 49.6362 50.4772 Z M 49.5399 50.5904 L 49.5487 50.5685 L 49.58 50.5623 Z M 51.3181 50.6999 L 50.8124 50.5155 L 50.6734 50.4082 L 51.0101 50.5007 Z M 52.6454 50.7178 L 51.7184 50.5408 L 51.0857 50.3201 L 51.1072 50.3191 L 51.0606 50.3111 L 51.1258 50.3183 L 51.1298 50.3181 L 51.1467 50.3207 L 51.1449 50.3205 L 51.1477 50.3207 Z M 49.202 50.7216 L 49.2869 50.6209 L 49.3009 50.6179 L 49.3336 50.5653 L 49.4422 50.5003 L 49.382 50.5077 L 49.4223 50.4596 L 49.3824 50.4794 L 49.4251 50.4072 L 49.5112 50.3731 L 49.504 50.3877 L 49.5636 50.3849 L 49.5539 50.3949 L 49.4835 50.4295 L 49.452 50.4947 L 49.4574 50.4911 L 49.3386 50.6106 L 49.3659 50.605 L 49.258 50.6907 L 49.2672 50.6751 Z M 47.3502 50.7511 L 48.8944 50.4138 L 49.2849 50.3968 L 48.6253 50.5982 Z M 49.3276 50.7718 L 49.3507 50.7585 Z M 49.7719 50.7977 L 49.7466 50.6921 L 49.7506 50.6827 L 49.7801 50.7728 Z M 48.9187 50.8127 L 49.2171 50.6349 L 49.2632 50.6255 L 49.1767 50.7395 Z M 50.554 50.8452 L 50.3915 50.666 L 50.3941 50.5912 L 50.5608 50.7479 Z M 49.4342 50.8576 L 49.5004 50.6905 L 49.4843 50.6981 L 49.5138 50.6642 L 49.5812 50.6247 L 49.5365 50.6375 L 49.6061 50.5569 L 49.6623 50.546 L 49.6212 50.6016 L 49.7078 50.5513 L 49.7078 50.5515 L 49.7121 50.549 L 49.7113 50.5458 L 49.7179 50.5346 L 49.7592 50.5216 L 49.7458 50.4895 L 49.7612 50.4646 L 49.7698 50.5159 L 49.7751 50.5127 L 49.7716 50.524 L 49.7757 50.523 L 49.7717 50.5306 L 49.7767 50.5599 L 49.7757 50.5605 L 49.7672 50.5402 L 49.7478 50.5775 L 49.7209 50.5864 L 49.7209 50.5852 L 49.7191 50.5858 L 49.7195 50.5872 L 49.6721 50.6094 L 49.6796 50.5968 L 49.6105 50.6165 L 49.5862 50.65 L 49.5676 50.6586 L 49.5844 50.6524 Z M 49.1366 50.8621 L 49.1775 50.8279 L 49.195 50.7979 L 49.2275 50.7858 L 49.3368 50.6943 L 49.3025 50.7041 L 49.3828 50.6363 L 49.3673 50.6686 L 49.4671 50.5848 L 49.5421 50.5699 L 49.4753 50.6357 L 49.4295 50.6682 L 49.3577 50.6883 L 49.3356 50.7336 L 49.2997 50.7589 L 49.3286 50.7481 L 49.3136 50.7784 L 49.1609 50.8562 L 49.1653 50.8486 Z M 49.0682 50.8807 L 49.1225 50.8251 L 49.1191 50.8298 Z M 49.0563 50.9295 L 49.0587 50.9279 Z M 48.9857 50.979 L 49.0002 50.9616 L 49.0439 50.9363 L 49.0417 50.9397 Z M 48.9213 51.0242 L 48.9438 51.0051 Z M 49.8316 51.0447 L 49.7993 50.9098 L 49.8098 50.8639 L 49.8433 50.968 Z M 49.0357 51.0693 L 49.1498 50.8749 L 49.3128 50.7804 L 49.2985 50.8101 Z M 47.0924 51.3308 L 48.4761 50.7828 L 48.964 50.6853 L 48.4151 50.9556 Z M 99.7459 51.5358 L 52.8179 50.2463 L 67.0422 49.6391 C 67.037 49.5131 67.0302 49.3867 67.0219 49.2601 L 99.6944 47.5261 C 99.7411 48.4009 99.7644 49.289 99.7644 50.1662 C 99.7644 50.6209 99.758 51.0818 99.7459 51.5358 Z M 47.7021 51.5387 L 48.5218 51.0497 L 48.9835 50.8771 L 48.7443 51.0469 Z M 48.3001 51.7943 L 48.9578 51.0123 L 49.0381 50.9447 L 48.7564 51.3444 Z M 54.5866 51.8926 L 52.1371 50.9987 L 51.4198 50.6139 L 52.0926 50.7993 Z M 48.8242 52.3978 L 49.2791 51.2489 L 49.6639 50.6227 L 49.7237 50.6002 L 49.7269 50.6098 L 49.7245 50.6002 L 49.7393 50.5944 L 49.7289 50.6157 L 49.7359 50.6373 L 49.7345 50.6415 L 49.7285 50.6163 Z M 54.2877 52.6186 L 51.5283 51.0669 L 51.0398 50.6905 L 51.9555 51.1117 Z M 48.0386 52.7642 L 48.7616 51.535 L 49.1833 51.0465 L 48.9604 51.5049 Z M 50.1848 53.6272 L 50.0712 52.3705 L 50.1695 52.9743 Z M 0.567236 56.3573 C 0.414215 55.0793 0.30862 53.7781 0.253719 52.4899 L 47.8241 50.4592 L 33.0683 52.448 C 33.0689 52.4526 33.0695 52.4576 33.0703 52.4624 Z M 50.1703 56.3715 L 50.2193 55.109 L 50.2291 55.5262 Z M 98.8769 59.545 L 66.7533 53.4115 C 66.7665 53.3457 66.7789 53.2801 66.7912 53.2145 L 51.234 50.3301 L 66.9639 52.0403 C 66.9647 52.0318 66.9656 52.0228 66.9664 52.014 L 99.4791 55.4955 L 99.4664 55.6177 C 99.323 56.9243 99.1245 58.2484 98.8769 59.545 Z M 2.11573 64.0889 C 1.75721 62.8246 1.44447 61.5284 1.18617 60.236 L 33.3091 53.8148 C 33.3095 53.816 33.3097 53.8176 33.3101 53.819 L 33.5393 53.7685 L 47.1558 51.0467 L 34.8314 54.8088 Z M 96.7432 67.278 L 65.9886 56.0539 C 66.0494 55.8958 66.1076 55.7375 66.1626 55.5789 L 53.8392 51.2804 L 97.97 63.4414 C 97.6144 64.7312 97.2017 66.022 96.7432 67.278 Z M 4.96596 71.6984 C 4.3865 70.4696 3.8509 69.1997 3.37384 67.9241 L 34.1059 56.4379 C 34.1101 56.4478 34.1141 56.4582 34.1183 56.4686 L 35.7175 55.8352 L 47.2874 51.5108 L 36.5123 56.8172 Z M 93.3775 74.5964 L 64.7967 58.5271 C 64.9057 58.3407 65.0114 58.1529 65.1127 57.9643 L 54.6932 52.3709 L 95.2088 71.0067 C 94.6498 72.2217 94.0336 73.4296 93.3775 74.5964 Z M 9.15192 78.9089 C 8.35124 77.767 7.59026 76.5756 6.89051 75.3681 L 35.3102 58.8963 C 35.3156 58.9053 35.321 58.9143 35.3261 58.9232 L 37.4423 57.6605 L 48.266 51.3872 L 38.5332 58.3078 Z M 88.8878 81.2589 L 63.2292 60.772 C 63.3444 60.6319 63.4574 60.4899 63.5675 60.3474 L 53.2642 52.4049 L 91.2629 78.0247 C 90.5185 79.1292 89.7193 80.2172 88.8878 81.2589 Z M 14.5857 85.3791 C 13.5936 84.3875 12.6328 83.3399 11.7301 82.2652 L 36.8931 61.1279 C 36.8947 61.1297 36.8961 61.1313 36.8977 61.1331 L 48.8282 51.1209 L 38.3916 61.5623 L 37.8099 62.136 C 37.8113 62.1374 37.8127 62.1384 37.8141 62.14 Z M 83.4094 87.0912 L 61.3411 62.7452 C 61.3943 62.6972 61.4473 62.6492 61.5 62.6009 L 50.8513 51.0206 L 86.2661 84.2851 C 85.3553 85.2543 84.3944 86.1985 83.4094 87.0912 Z M 20.9752 90.7549 C 19.8422 89.9563 18.7321 89.1007 17.6757 88.2125 L 39.4398 62.331 L 48.0011 52.4155 L 40.3531 63.2654 L 39.875 63.9186 C 39.8788 63.9218 39.8826 63.9242 39.8864 63.9272 Z M 27.8825 94.8301 C 26.6985 94.254 25.5259 93.6256 24.3978 92.962 L 41.1222 64.5245 L 48.346 52.7676 Z M 70.0465 95.7713 L 51.2111 53.0879 L 57.6297 65.3255 C 57.7575 65.2585 57.8853 65.1895 58.0121 65.119 L 73.647 94.006 C 72.4754 94.6403 71.2639 95.2342 70.0465 95.7713 Z M 34.8744 97.6151 C 33.7058 97.2455 32.5388 96.8306 31.4056 96.3819 L 43.4642 65.9321 C 43.4759 65.9369 43.4877 65.9419 43.4993 65.9465 L 49.6224 50.9949 Z M 62.4588 98.4109 L 51.3165 55.4798 L 54.9067 66.4766 C 55.114 66.4088 55.3216 66.3366 55.5281 66.2605 L 66.3064 97.2443 C 65.0445 97.6833 63.7501 98.0757 62.4588 98.4109 Z M 41.605 99.2731 C 40.4914 99.0729 39.3746 98.8363 38.2854 98.57 L 46.0636 66.7684 C 46.0869 66.7736 46.1104 66.7794 46.1339 66.7848 L 47.3915 61.3376 L 49.7131 51.845 L 47.7848 64.8883 Z M 50.8026 47.265 L 50.791 47.4317 L 50.7956 47.4195 L 50.9392 46.8332 Z M 50.1126 49.1443 L 50.0943 49.2693 L 50.2323 49.0349 L 50.2953 48.7613 L 50.1294 49.1016 L 50.3383 48.5747 L 50.4994 47.8768 L 50.5702 46.0517 L 50.1142 49.1327 L 50.0811 49.2011 L 50.0815 49.2225 Z M 50.4484 49.1981 L 50.3949 49.3032 L 50.4464 49.2418 Z M 49.8822 49.7723 L 49.9185 49.7956 L 49.9103 49.7075 L 49.8786 49.7523 Z M 49.9424 49.8109 L 49.9589 49.8217 L 49.988 49.787 L 50.0026 49.5765 L 49.9406 49.6646 Z M 50.0947 49.7818 L 50.0959 49.8389 L 50.24 49.4874 L 50.3104 49.4037 L 50.3642 49.1844 L 50.4575 48.9561 L 50.4585 48.9298 L 50.4093 48.9998 L 50.4647 48.7729 L 50.4701 48.63 L 50.5207 48.544 L 50.6312 48.0921 L 50.4715 48.5951 L 50.4799 48.3818 L 50.3923 48.5616 L 50.2548 48.996 L 50.4492 48.6657 L 50.2887 49.1706 L 50.1577 49.3566 L 50.2034 49.1591 L 50.1274 49.3999 L 50.0871 49.4567 L 50.0885 49.5215 L 50.0239 49.7444 L 50.0851 49.6718 L 50.0917 49.6435 L 50.0921 49.6632 L 50.1569 49.5863 Z M 49.9424 49.8207 L 49.9428 49.8408 L 49.9542 49.8271 Z M 50.0301 49.8678 L 50.0385 49.8731 L 50.0385 49.8723 Z M 49.9374 49.9999 L 49.9374 49.9999 L 49.9374 49.9997 Z M 50.2368 49.9856 L 50.2763 50.0027 L 50.2787 50.0013 L 50.2426 49.9818 Z M 50.3387 50.0302 L 50.3569 50.0382 L 50.4167 50.0145 L 50.4181 49.9746 Z M 50.3993 50.0567 L 50.4149 50.0635 L 50.4153 50.052 Z M 50.2095 50.0721 L 50.2464 50.0819 L 50.249 50.0809 L 50.2267 50.0635 Z M 50.1154 50.0723 L 50.133 50.0882 L 50.1447 50.0813 L 50.1509 50.0565 L 50.1752 50.0629 L 50.2034 50.0462 L 50.1788 50.027 L 50.1535 50.045 L 50.1611 50.0135 L 50.1543 50.0081 L 50.1649 49.9989 L 50.1487 49.9934 L 50.1709 49.9746 L 50.1742 49.9609 L 50.1816 49.9656 L 50.1848 49.9627 L 50.2004 49.9694 L 50.2079 49.9631 L 50.1936 49.9555 L 50.4266 49.7599 L 50.4288 49.6955 L 50.1786 49.9423 L 50.1952 49.8747 L 50.4328 49.5998 L 50.4358 49.5123 L 50.3714 49.5771 L 50.2161 49.789 L 50.2347 49.7139 L 50.203 49.7456 L 50.2426 49.681 L 50.2793 49.5309 L 50.1368 49.8115 L 50.0963 49.8522 L 50.0973 49.8895 L 50.0917 49.9009 L 50.0746 49.8917 L 50.0865 49.862 L 50.0628 49.8855 L 50.062 49.8851 L 50.061 49.8877 L 50.0612 49.8877 L 50.055 49.906 L 50.0664 49.9108 L 50.073 49.8955 L 50.0889 49.9058 L 50.0827 49.9182 L 50.0941 49.9232 L 50.0979 49.9164 L 50.0981 49.9248 L 50.1122 49.931 L 50.0987 49.9495 L 50.0991 49.9652 L 50.0913 49.9597 L 50.0835 49.9704 L 50.068 49.965 L 50.0778 49.9491 L 50.0698 49.9433 L 50.0604 49.9625 L 50.0473 49.9579 L 50.0572 49.9333 L 50.0489 49.9268 L 50.0395 49.9553 L 50.0211 49.9487 L 50.0275 49.9212 L 50.0052 49.9433 L 49.995 49.9397 L 49.9906 49.9579 L 49.9924 49.9595 L 49.9843 50.0125 L 50.005 50.0181 L 50.0142 49.9794 L 50.0279 49.9922 L 50.0186 50.0215 L 50.0207 50.0221 L 50.0317 49.9955 L 50.0399 50.0029 L 50.0289 50.0243 L 50.0313 50.0251 L 50.0431 50.0059 L 50.0516 50.0139 L 50.0417 50.0276 L 50.0594 50.0324 L 50.0648 50.0258 L 50.0815 50.0382 L 50.08 50.0396 L 50.0863 50.0456 L 50.0917 50.041 L 50.1011 50.0436 L 50.1011 50.0528 L 50.1097 50.0456 L 50.1412 50.054 Z M 50.2253 50.11 L 50.1982 50.1287 L 50.2861 50.1096 L 50.2691 50.0964 Z M 50.1029 50.1245 L 50.1029 50.1387 L 50.134 50.1261 L 50.1089 50.1215 Z M 50.4416 50.1337 L 50.4619 50.1391 L 50.5289 50.1355 L 50.4751 50.107 L 50.4755 50.1068 L 50.4681 50.103 L 50.4647 50.1034 L 50.443 50.096 L 50.441 50.1068 L 50.4129 50.1104 L 50.4141 50.0857 L 50.4067 50.0833 L 50.4145 50.0741 L 50.3884 50.0601 L 50.3626 50.0679 L 50.3196 50.053 L 50.3515 50.0404 L 50.3361 50.0322 L 50.3112 50.0496 L 50.313 50.0508 L 50.3108 50.0498 L 50.2895 50.0647 L 50.318 50.0536 L 50.3471 50.0727 L 50.2845 50.092 L 50.3218 50.1018 L 50.3746 50.0902 L 50.4071 50.1112 L 50.374 50.1156 L 50.4123 50.1259 L 50.4127 50.115 L 50.4354 50.1297 L 50.437 50.1289 L 50.437 50.1307 Z M 50.1033 50.1473 L 50.1033 50.1494 L 50.1308 50.1389 Z M 50.1033 50.152 L 50.1033 50.1582 L 50.1264 50.1566 L 50.1282 50.1488 Z M 50.0329 50.1309 L 49.9861 50.164 L 50.0078 50.163 L 50.0435 50.1419 Z M 49.9456 50.1883 L 49.9456 50.1885 L 49.9458 50.1879 Z M 49.955 50.1925 Z M 49.95 50.1939 L 49.9504 50.1945 L 49.9508 50.1937 Z M 49.9611 50.1945 L 49.9615 50.1947 L 49.9635 50.1939 L 49.9631 50.1935 Z M 49.9633 50.1955 L 49.9639 50.1957 L 49.9643 50.1945 L 49.9637 50.1941 Z M 49.9571 50.1963 L 49.9571 50.1965 L 49.9599 50.1949 Z M 49.9177 50.1999 L 49.9229 50.2013 L 49.9247 50.1983 L 49.9199 50.1973 Z M 49.9382 50.2057 L 49.939 50.2057 L 49.9388 50.2055 Z M 49.9472 50.2079 L 49.9486 50.2085 L 49.9476 50.2041 L 49.9492 50.2065 L 49.9472 50.2029 L 49.9472 50.2033 L 49.9468 50.2029 L 49.9472 50.2025 L 49.946 50.2017 L 49.9456 50.2019 L 49.946 50.2025 L 49.9452 50.2021 L 49.9442 50.2027 L 49.9442 50.2019 L 49.9434 50.2019 L 49.9446 50.2007 L 49.945 50.2011 L 49.9456 50.2009 L 49.9452 50.2003 L 49.9462 50.1997 L 49.9446 50.1985 L 49.945 50.1955 L 49.9426 50.1961 L 49.942 50.1955 L 49.9412 50.1973 L 49.9402 50.1969 L 49.9406 50.1979 L 49.939 50.2011 L 49.9378 50.2009 L 49.9386 50.2023 L 49.938 50.2033 L 49.9352 50.2003 L 49.9308 50.2035 L 49.936 50.2051 L 49.9376 50.2041 L 49.937 50.2053 L 49.9384 50.2043 L 49.9382 50.2039 L 49.9394 50.2035 L 49.9394 50.2037 L 49.9422 50.2023 L 49.9426 50.2035 L 49.9398 50.2049 L 49.9438 50.2071 L 49.9438 50.2069 L 49.945 50.2075 L 49.9468 50.2033 Z M 49.955 50.2101 L 49.9568 50.2106 L 49.956 50.2043 Z M 50.0014 50.213 L 50.0082 50.216 Z M 49.9568 50.2162 L 49.9575 50.2172 L 49.9573 50.2148 Z M 49.9107 50.2067 L 49.9021 50.2182 L 49.9223 50.2025 Z M 49.9643 50.2128 L 49.9863 50.2186 L 49.9793 50.2112 L 49.9619 50.2055 L 49.9619 50.2051 L 49.9607 50.2043 L 49.9603 50.2051 L 49.9589 50.2051 L 49.9589 50.2039 L 49.9573 50.2033 L 49.9581 50.2047 L 49.9575 50.2047 L 49.9585 50.2105 L 49.9585 50.211 L 49.9585 50.211 L 49.9589 50.2108 L 49.9603 50.2114 L 49.9611 50.2085 Z M 49.8979 50.219 L 49.8965 50.2204 Z M 50.0022 50.2232 L 50.0247 50.2294 L 50.0215 50.2268 L 49.9962 50.2172 Z M 49.8936 50.2298 L 49.892 50.232 L 49.9123 50.2182 Z M 50.0367 50.2292 L 50.0435 50.2324 L 50.0305 50.225 Z M 50.0463 50.2354 L 50.0512 50.2368 L 50.0477 50.2346 Z M 49.952 50.2308 L 49.9542 50.2374 L 49.955 50.234 L 49.9546 50.2318 L 49.9554 50.2332 L 49.9577 50.2216 L 49.9564 50.2176 L 49.9532 50.227 L 49.953 50.2252 L 49.9526 50.2278 L 49.953 50.2286 Z M 50.0692 50.2439 L 50.1015 50.2589 L 50.1019 50.2561 Z M 49.948 50.2595 L 49.948 50.2657 L 49.9538 50.2392 L 49.9516 50.234 Z M 50.1057 50.2517 L 50.1573 50.2659 L 50.1314 50.2378 L 50.1077 50.2332 L 50.1116 50.2164 L 50.1049 50.2089 L 50.1053 50.2328 L 50.0616 50.2242 L 50.0477 50.2344 L 50.0554 50.2378 L 50.1033 50.2511 L 50.1055 50.2415 Z M 50.0465 50.2358 L 50.0983 50.2707 L 50.0999 50.2641 Z M 50.1061 50.2611 L 50.1635 50.2876 L 50.1723 50.2822 L 50.1715 50.2814 L 50.1061 50.2575 Z M 50.1651 50.2882 L 50.187 50.2982 L 50.1782 50.2886 Z M 50.2604 50.3321 L 50.3066 50.3534 L 50.3622 50.351 L 50.2819 50.3217 Z M 50.1083 50.3534 L 50.1085 50.362 L 50.1156 50.3616 Z M 49.9819 50.2822 L 50.0269 50.3651 L 50.0293 50.3651 L 50.0461 50.3556 L 49.9986 50.2826 Z M 49.9721 50.2886 L 49.9994 50.3665 L 50.01 50.3661 L 49.9745 50.2856 L 49.9719 50.2874 Z M 49.9781 50.3225 L 49.9861 50.3669 L 49.9896 50.3669 Z M 49.9402 50.3095 L 49.9314 50.3693 L 49.9476 50.3687 L 49.949 50.3512 L 49.9492 50.3685 L 49.9713 50.3677 L 49.9645 50.2928 L 49.9526 50.3012 L 49.9538 50.2812 L 49.948 50.2812 L 49.9484 50.3039 Z M 50.2261 50.3568 L 50.265 50.3829 L 50.2404 50.3562 L 50.2622 50.3552 L 50.2388 50.342 L 50.2309 50.346 L 50.2151 50.3287 L 50.1527 50.2938 L 50.1621 50.2882 L 50.1416 50.2874 L 50.1061 50.2675 L 50.1065 50.276 L 50.122 50.2868 L 50.1065 50.2862 L 50.1069 50.2948 L 50.0945 50.2858 L 50.0947 50.2852 L 50.0387 50.2406 L 50.0285 50.2479 L 50.0682 50.285 L 50.0455 50.2844 L 50.0186 50.2547 L 50.0044 50.2647 L 50.0189 50.2834 L 50.0082 50.283 L 50.0586 50.3484 L 50.0656 50.344 L 50.077 50.3588 L 50.0881 50.3311 L 50.0847 50.3273 L 50.0899 50.3053 L 50.1061 50.3207 L 50.1073 50.3201 L 50.1073 50.3219 L 50.1481 50.36 L 50.1866 50.3586 L 50.1252 50.3095 L 50.142 50.3002 L 50.2187 50.3516 L 50.2057 50.3576 Z M 50.3527 50.406 L 50.3323 50.4118 L 50.3549 50.4074 Z M 49.9284 50.3905 L 49.9231 50.4269 L 49.9442 50.4148 Z M 50.0602 50.4264 L 50.0602 50.4269 L 50.0604 50.4262 Z M 50.1425 50.4437 L 50.1463 50.4491 L 50.1874 50.4409 L 50.1782 50.4305 L 50.2105 50.4184 L 50.2257 50.4333 L 50.2691 50.4244 L 50.2454 50.4052 L 50.2506 50.4034 L 50.2438 50.4042 L 50.1932 50.3636 L 50.1657 50.3765 L 50.2008 50.4094 L 50.1633 50.414 L 50.1404 50.3887 L 50.1109 50.4024 L 50.1232 50.4188 L 50.1138 50.42 L 50.1346 50.4467 Z M 50.1105 50.4547 L 50.1105 50.4557 L 50.1111 50.4557 Z M 50.0259 50.4427 L 50.0357 50.4714 L 50.052 50.4612 L 50.0407 50.4357 Z M 50.3778 50.459 L 50.3989 50.4734 L 50.4005 50.4329 L 50.3842 50.4238 Z M 50.0012 50.4543 L 50.0052 50.4772 L 50.0178 50.4748 L 50.0112 50.4495 Z M 50.013 50.5226 L 50.0229 50.5793 L 50.0301 50.5496 Z M 49.9532 50.6897 L 49.9823 50.7453 L 49.9998 50.6741 L 49.9847 50.5105 L 49.9512 50.52 Z M 50.303 50.8755 L 50.3778 51.0138 L 50.3834 50.8743 L 50.3204 50.7778 Z M 50.1236 51.0148 L 50.1914 51.1438 L 50.1202 50.8699 Z M 49.9609 51.3264 L 49.9831 51.395 L 49.9581 51.1197 Z M 49.9655 100.005 C 48.8188 100.005 47.6574 99.965 46.5141 99.8855 L 49.6673 54.4124 L 49.1958 57.0365 L 49.8056 51.4674 L 49.87 51.204 L 49.8455 51.1026 L 49.8535 51.0316 L 49.8768 51.1763 L 49.892 51.1153 L 49.8953 51.1259 L 49.8975 51.0918 L 49.9348 50.9389 L 49.9119 50.8845 L 49.9229 50.7276 L 49.9123 50.6119 L 49.9284 50.6432 L 49.9366 50.524 L 49.9081 50.532 L 49.9083 50.5314 L 49.937 50.5206 L 49.9394 50.4903 L 49.9508 50.4882 L 49.9508 50.5155 L 49.9839 50.5031 L 49.9821 50.482 L 49.9865 50.4812 L 49.9803 50.464 L 49.9769 50.4658 L 49.9593 50.4383 L 49.95 50.4393 L 49.9504 50.4782 L 49.9398 50.4832 L 49.9428 50.4403 L 49.9205 50.4431 L 49.9127 50.4957 L 49.9133 50.4957 L 49.9127 50.4959 L 49.9099 50.5159 L 49.9119 50.4961 L 49.9025 50.5007 L 49.9021 50.4977 L 49.9121 50.4959 L 49.9181 50.4433 L 49.9063 50.4447 L 49.9087 50.4351 L 49.9195 50.4289 L 49.9243 50.3839 L 49.9215 50.3797 L 49.9372 50.3117 L 49.932 50.3157 L 49.9352 50.2842 L 49.9235 50.3215 L 49.8961 50.3404 L 49.8932 50.335 L 49.9155 50.28 L 49.8993 50.2796 L 49.885 50.3079 L 49.8754 50.2788 L 49.8814 50.2687 L 49.8794 50.2489 L 49.8585 50.278 L 49.8525 50.2719 L 49.8788 50.2404 L 49.87 50.2469 L 49.8788 50.24 L 49.8786 50.2392 L 49.8884 50.2302 L 49.8786 50.2382 L 49.8784 50.2352 L 49.8573 50.2529 L 49.8736 50.2429 L 49.8553 50.2589 L 49.8698 50.2469 L 49.8519 50.2707 L 49.8495 50.2671 L 49.8385 50.2774 L 49.8335 50.2772 L 49.8479 50.2649 L 49.8471 50.2631 L 49.8272 50.277 L 49.8172 50.2766 L 49.8451 50.2599 L 49.8409 50.2537 L 49.8355 50.2563 L 49.8401 50.2521 L 49.8351 50.2447 L 49.8639 50.2324 L 49.8635 50.2336 L 49.8776 50.2278 L 49.8772 50.2212 L 49.8866 50.2134 L 49.8768 50.2164 L 49.8752 50.1995 L 49.8979 50.1945 L 49.9063 50.1967 L 49.9083 50.1951 L 49.9009 50.1937 L 49.9177 50.1869 L 49.9247 50.1877 L 49.9237 50.1887 L 49.9251 50.1879 L 49.927 50.1879 L 49.93 50.1875 L 49.9292 50.1883 L 49.9308 50.1885 L 49.9308 50.1881 L 49.9314 50.1885 L 49.931 50.1877 L 49.934 50.1865 L 49.9378 50.1897 L 49.938 50.1895 L 49.938 50.1893 L 49.9428 50.1861 L 49.9426 50.1855 L 49.9434 50.1851 L 49.9458 50.1875 L 49.9468 50.1835 L 49.9516 50.1921 L 49.952 50.1907 L 49.955 50.1917 L 49.9554 50.1909 L 49.9562 50.1921 L 49.9554 50.1923 L 49.9599 50.1939 L 49.9599 50.1931 L 49.9631 50.1935 L 49.9615 50.1919 L 49.9645 50.1921 L 49.9631 50.1935 L 49.9639 50.1935 L 49.9639 50.1937 L 49.9673 50.1925 L 49.9769 50.1949 L 49.9737 50.1931 L 49.9803 50.1939 L 49.9749 50.1895 L 49.9769 50.1887 L 49.9851 50.1945 L 50.0885 50.2057 L 50.0871 50.2067 L 50.1045 50.2085 L 50.1033 50.2073 L 50.1132 50.2095 L 50.1138 50.2085 L 50.2703 50.2254 L 50.2781 50.221 L 50.2845 50.227 L 50.4081 50.2404 L 50.4093 50.2047 L 50.3762 50.1792 L 50.3519 50.1784 L 50.3652 50.1704 L 50.3626 50.1686 L 50.2606 50.1496 L 50.3331 50.1459 L 50.3058 50.1249 L 50.2022 50.1389 L 50.1878 50.1361 L 50.1864 50.1371 L 50.1902 50.1405 L 50.1796 50.1419 L 50.1609 50.155 L 50.2034 50.1528 L 50.2279 50.175 L 50.136 50.1724 L 50.1196 50.1839 L 50.1226 50.1722 L 50.1037 50.1716 L 50.1045 50.1945 L 50.0967 50.2001 L 50.0694 50.1706 L 50.0299 50.1694 L 50.0086 50.176 L 50.0255 50.1694 L 50.0138 50.169 L 50.059 50.1592 L 50.0582 50.1582 L 50.0512 50.1592 L 50.057 50.1568 L 50.0508 50.1502 L 50.0267 50.162 L 50.0321 50.1618 L 50.0124 50.169 L 49.9982 50.1686 L 50.0032 50.1656 L 49.9839 50.1682 L 49.9803 50.1682 L 49.9685 50.1766 L 49.9697 50.17 L 49.9613 50.1714 L 49.9639 50.1678 L 49.9615 50.1676 L 49.9765 50.1417 L 49.9691 50.149 L 49.9896 50.113 L 49.9839 50.1317 L 50.0032 50.1154 L 49.9823 50.1359 L 49.9753 50.1584 L 50.0219 50.1189 L 50.0118 50.108 L 50.0162 50.1046 L 50.0146 50.104 L 50.0114 50.1074 L 49.9998 50.1014 L 50.0026 50.0978 L 49.9966 50.091 L 49.9938 50.1002 L 49.9906 50.0998 L 49.9833 50.1142 L 49.9892 50.0994 L 49.9851 50.1052 L 49.9865 50.099 L 49.9861 50.0986 L 49.9898 50.0839 L 49.9761 50.0689 L 49.9719 50.0962 L 49.9667 50.0952 L 49.9691 50.0613 L 49.9607 50.0522 L 49.9655 50.0075 L 49.9725 50.0093 L 49.9751 49.9736 L 49.9685 49.98 L 49.9729 49.9415 L 49.9773 49.9455 L 49.9781 49.9337 L 49.9737 49.9324 L 49.9803 49.8739 L 49.9777 49.8721 L 49.9803 49.8731 L 49.9819 49.8594 L 49.9777 49.8721 L 49.9428 49.8448 L 49.9428 49.8568 L 49.9777 49.8721 L 49.9603 49.9276 L 49.9558 49.926 L 49.9597 49.9294 L 49.9446 49.9776 L 49.9462 50.0023 L 49.9446 50.0039 L 49.945 50.0352 L 49.9402 50.0298 L 49.9382 50.0103 L 49.931 50.0199 L 49.9298 50.0187 L 49.9259 50.0227 L 49.9274 50.0314 L 49.9137 50.0745 L 49.9055 50.043 L 49.8916 50.0569 L 49.9007 50.0829 L 49.8836 50.0799 L 49.879 50.0695 L 49.8676 50.0811 L 49.8122 49.9959 L 49.821 49.9854 L 49.8627 50.0621 L 49.8593 50.0251 L 49.8367 49.9734 L 49.8549 49.9782 L 49.8525 49.9483 L 49.8535 49.9471 L 49.865 49.9808 L 49.8912 49.9878 L 49.8872 49.9724 L 49.8585 49.9411 L 49.8744 49.9222 L 49.8672 49.8951 L 49.8471 49.8881 L 49.8417 49.8287 L 49.8437 49.8235 L 49.8501 49.8293 L 49.8467 49.8159 L 49.8471 49.8147 L 49.8932 49.8349 L 49.9079 49.8821 L 49.9247 49.8624 L 49.9235 49.8482 L 49.9332 49.8524 L 49.9406 49.8434 L 49.9215 49.8287 L 49.9197 49.8086 L 49.8854 49.7902 L 49.8872 49.8022 L 49.8605 49.7814 L 49.8619 49.7777 L 49.8613 49.7773 L 49.8589 49.7802 L 49.8324 49.7597 L 49.8258 49.736 L 49.8337 49.741 L 49.8314 49.7159 L 49.8631 49.6624 L 49.8768 49.7404 L 49.9063 49.6652 L 49.9005 49.5988 L 49.9388 49.533 L 49.9398 49.5813 L 50.0399 49.3277 L 50.0459 49.2735 L 50.0197 49.3269 L 50.068 48.635 L 50.0766 48.996 L 50.6639 43.634 L 50.9784 35.5059 L 51.1385 33.1962 C 51.115 33.1946 51.0915 33.193 51.068 33.1916 L 52.3356 0.454042 C 52.901 0.475971 53.4761 0.50707 54.0451 0.546742 L 54.709 0.592793 L 55.37 0.665158 C 55.9942 0.733537 56.6253 0.814674 57.2459 0.906377 L 51.167 42.0152 L 50.8722 46.2622 L 52.0452 41.1815 L 51.2797 45.4409 L 54.1671 33.6346 C 54.0469 33.6052 53.9263 33.5773 53.8067 33.5518 L 61.1722 1.64877 C 62.4702 1.9484 63.7718 2.30465 65.0407 2.70734 L 55.134 33.9099 C 55.1019 33.8995 55.0696 33.8891 55.0371 33.879 L 51.1481 46.1723 L 51.0309 46.8262 L 51.043 46.7949 L 51.0275 46.8442 L 50.9101 47.4974 L 50.7661 47.7939 L 50.7396 48.1717 L 50.8104 48.0512 L 50.7968 48.1278 L 50.8684 47.9528 L 52.4146 45.3241 L 50.9083 48.2921 L 50.7191 48.5602 L 50.7087 48.6182 L 50.7033 48.6956 L 50.6902 48.7217 L 50.6375 49.0147 L 50.685 48.9581 L 50.6846 48.9615 L 50.6914 48.9505 L 51.7597 47.6802 L 50.6702 49.1684 L 50.6625 49.286 L 50.5726 49.3758 L 50.5586 49.4541 L 50.6587 49.3381 L 50.6489 49.4788 L 50.5337 49.5927 L 50.5173 49.6836 L 50.6421 49.5789 L 50.6403 49.6 L 88.1046 18.1601 C 88.9576 19.1764 89.7799 20.2401 90.5486 21.3212 L 50.6334 49.7039 L 50.627 49.7936 L 50.9587 49.5954 L 50.6246 49.8299 L 50.622 49.869 L 50.4705 49.9437 L 50.4609 49.9971 L 50.6172 49.9349 L 50.6132 49.9916 L 50.4529 50.0404 L 50.4472 50.0745 L 50.5821 50.0448 L 50.6106 50.0282 L 50.6098 50.039 L 51.1162 49.9282 L 50.8568 50.0508 L 50.6068 50.0845 L 50.6037 50.1313 L 50.696 50.1267 L 50.6298 50.1576 L 50.6661 50.1736 L 50.6256 50.1596 L 50.6007 50.174 L 50.5981 50.1724 L 50.5947 50.1742 L 50.6007 50.1758 L 50.5999 50.1851 L 50.573 50.1845 L 50.5427 50.1987 L 50.5492 50.2031 L 50.5377 50.2011 L 50.4553 50.24 L 50.4218 50.2142 L 50.4171 50.2414 L 50.4458 50.2443 L 50.445 50.2447 L 50.4645 50.2469 L 50.4635 50.2463 L 50.5945 50.2607 L 50.5945 50.2609 L 50.6236 50.2641 L 50.6242 50.2637 L 50.7904 50.2818 L 50.7077 50.3053 L 50.7087 50.3059 L 50.7055 50.3059 L 50.6184 50.3307 L 50.5901 50.3255 L 50.5849 50.34 L 50.5582 50.3189 L 50.5036 50.3087 L 50.5271 50.3002 L 50.4081 50.2906 L 50.4057 50.2962 L 50.4059 50.2902 L 50.3654 50.2824 L 50.3521 50.2886 L 50.3584 50.2946 L 50.3409 50.294 L 50.3108 50.3081 L 50.4007 50.3331 L 50.3975 50.3486 L 50.4035 50.3462 L 50.4041 50.3362 L 50.4117 50.3432 L 50.423 50.339 L 50.4521 50.3472 L 50.5795 50.3416 L 50.5072 50.3624 L 50.5337 50.3695 L 50.4515 50.3795 L 50.4589 50.3863 L 50.443 50.3805 L 50.4019 50.3921 L 50.4021 50.3853 L 50.3899 50.3917 L 50.3949 50.3941 L 50.3884 50.4006 L 50.4017 50.397 L 50.4031 50.3976 L 50.4589 50.3865 L 50.5399 50.4608 L 50.5795 50.479 L 50.5783 50.4957 L 50.6838 50.5922 L 50.5759 50.5314 L 50.5718 50.5898 L 50.9872 50.8701 L 52.0809 51.8709 L 50.5668 50.6622 L 50.5636 50.7078 L 50.3708 50.4981 L 50.3696 50.5045 L 50.2739 50.4283 L 50.2331 50.4401 L 50.3598 50.5589 L 50.3491 50.6191 L 50.196 50.4505 L 50.1563 50.4618 L 50.3353 50.6945 L 50.3335 50.705 L 50.387 50.7746 L 50.3876 50.7623 L 50.5456 50.967 L 50.5444 50.9792 L 60.2881 63.6216 C 60.2893 63.6204 60.2905 63.6194 60.2921 63.6186 L 80.3467 89.6521 C 79.2947 90.4626 78.1973 91.2401 77.0849 91.963 L 50.5359 51.1089 L 50.5237 51.2832 L 50.6529 51.5222 L 50.5211 51.3165 L 50.509 51.4967 L 50.3712 51.1851 L 50.3752 51.0878 L 50.2887 50.9534 L 50.2833 50.9853 L 50.2253 50.8538 L 50.1158 50.6831 L 50.1164 50.7027 L 50.26 51.1153 L 50.2384 51.2337 L 50.3602 51.4662 L 50.3626 51.4106 L 50.4242 51.5876 L 50.4932 51.7198 L 50.4894 51.7754 L 51.4567 54.5562 L 50.4611 52.1835 L 50.4607 52.1888 L 50.3433 51.9095 L 50.3493 51.7527 L 50.2287 51.288 L 50.187 51.52 L 50.1926 51.5513 L 50.1848 51.533 L 50.1414 51.7746 L 50.1439 51.8878 L 50.3228 52.4356 L 50.3272 52.3232 L 50.3744 52.5933 L 50.4226 52.7409 L 50.4161 52.8326 L 50.8162 55.1253 L 50.382 53.3256 L 50.3353 53.9946 L 52.4632 67.0734 C 52.6038 67.0505 52.7455 67.0256 52.8873 66.9983 L 58.5166 99.2651 C 57.2053 99.494 55.8674 99.6722 54.5405 99.7948 L 50.3232 54.1722 L 50.2845 54.7306 L 50.2492 54.3405 L 50.2755 53.6579 L 50.2687 53.5855 L 50.2767 53.6326 L 50.3014 52.9916 L 50.1599 52.4043 L 50.1547 52.3525 L 50.1559 52.388 L 50.0843 52.0918 L 50.059 52.2337 L 50.0231 51.8386 L 49.9639 51.5932 L 49.9655 51.721 L 50.0534 52.2626 L 49.9773 52.6876 L 50.0443 58.1922 L 49.4163 67.2355 C 49.5242 67.2431 49.6362 67.2491 49.7492 67.2536 L 50.0574 59.291 L 50.5514 100.002 C 50.3567 100.004 50.1613 100.005 49.9655 100.005"
         style="fill:#100f0d;fill-opacity:1;fill-rule:nonzero;stroke:none" />
      <path
         id="path28"
         d="M 87.9682 49.6842 C 87.358 50.6642 86.7272 51.6775 86.3104 52.4506 C 86.3006 52.4857 86.2884 52.5642 86.2801 52.6177 C 86.2452 52.8385 86.1979 53.1414 86.0054 53.4141 C 84.2335 55.9283 82.8394 58.5478 82.5155 59.6275 C 82.2065 60.658 81.4085 61.9191 80.3038 63.6647 C 78.6576 66.2656 76.4031 69.8281 74.4179 74.7888 C 74.3655 74.92 74.3109 75.058 74.2538 75.2025 C 73.2844 77.6599 71.4794 82.2337 66.0508 86.6233 C 61.1371 90.5956 55.1113 90.0729 51.1238 89.7276 C 50.365 89.6616 49.7098 89.6048 49.1488 89.5859 C 48.2951 89.5584 47.1275 89.6583 45.7753 89.7749 C 44.2823 89.9039 42.5876 90.0502 40.8909 90.0502 C 37.9257 90.0502 34.9524 89.6038 33.0268 87.8385 C 28.4253 83.6202 27.9261 78.7907 27.4433 74.1198 C 27.2599 72.3428 27.0697 70.5055 26.6568 68.7069 C 25.5731 63.9898 25.8473 54.5745 26.2677 47.5068 C 26.2809 47.2871 26.2902 47.1372 26.2932 47.0674 C 26.2394 46.6145 25.6174 43.504 25.2033 41.4327 C 24.9555 40.1939 24.7215 39.0235 24.6023 38.3973 C 23.6041 33.1573 22.8394 29.4868 22.4489 28.0618 C 21.2501 23.6864 21.5334 20.6261 23.3408 18.4314 C 24.194 17.3956 25.4348 17.4215 26.3349 17.5792 C 25.6152 15.0645 24.4306 9.3253 27.044 7.91088 C 28.204 7.28312 29.9683 7.21793 31.4346 7.74861 C 32.6733 8.19676 33.5892 9.02727 34.0132 10.0868 C 34.5295 11.3779 35.9677 15.8964 37.2362 19.8829 C 38.1408 22.7253 38.9953 25.4102 39.1745 25.8408 C 39.2865 26.1091 39.5445 26.7961 39.9017 27.7468 C 40.9786 30.6133 42.9451 35.8478 44.2835 38.6306 C 45.2982 38.808 46.3405 38.8608 46.7121 38.752 C 47.1379 37.1944 49.4342 25.7308 50.559 20.1163 C 51.0317 17.7568 51.3732 16.0519 51.4665 15.6155 C 51.6096 14.9481 51.7763 12.799 51.9377 10.7206 C 52.2627 6.52916 52.4477 4.48279 52.7399 3.82552 C 53.3789 2.38758 56.868 0.523218 59.5726 1.67469 C 62.6329 2.97767 62.5599 4.32032 62.3833 7.56401 C 62.3755 7.70854 62.3673 7.85885 62.359 8.01495 C 63.4022 7.83035 64.7686 7.86663 65.8325 8.16945 C 67.1889 8.5552 68.0944 9.3257 68.4516 10.3968 C 68.9853 11.9988 68.8228 15.9183 68.6653 19.7085 C 68.5609 22.2239 68.4624 24.5996 68.5912 25.8522 C 68.7814 27.7008 67.7669 41.3406 67.5197 43.1936 C 67.3725 44.2972 67.7625 51.3607 68.1255 56.904 C 69.6183 54.9537 72.1383 51.8623 74.1079 50.4662 C 75.8064 47.4157 77.5382 45.2136 80.7895 43.6936 C 84.3942 42.0084 88.525 43.3582 89.9354 44.4555 L 90.0333 44.5312 L 90.1023 44.6337 C 90.5793 45.3396 90.1238 46.221 87.9682 49.6842 Z M 91.1872 43.9007 L 91.0014 43.6258 L 90.7392 43.4218 C 89.6039 42.5385 87.1696 41.5878 84.509 41.5878 C 82.9784 41.5878 81.5402 41.8972 80.2351 42.5076 C 76.7725 44.1266 74.8447 46.5088 73.105 49.5785 C 71.8504 50.527 70.4553 52.0038 69.2201 53.4527 C 68.9227 48.4976 68.7253 44.1455 68.8178 43.3638 C 69.022 41.8346 70.1089 27.8106 69.8936 25.7182 C 69.7745 24.5595 69.8756 22.121 69.9737 19.7627 C 70.1729 14.9606 70.2612 11.6855 69.6936 9.98297 C 68.9853 7.85806 66.7633 6.58937 63.7497 6.58917 L 63.7433 6.58917 C 63.7959 5.3125 63.7656 4.3556 63.4112 3.42801 C 62.791 1.80526 61.3823 1.0222 60.0859 0.469991 C 59.3619 0.161988 58.5685 0.00569472 57.7274 0.00569472 C 55.1675 0.00569472 52.3356 1.51142 51.5434 3.29364 C 51.1826 4.10581 51.0163 5.66815 50.6326 10.6189 C 50.4892 12.4635 50.3112 14.7593 50.1862 15.3414 C 50.0913 15.786 49.7494 17.4918 49.2764 19.8534 C 48.2913 24.7713 46.3855 34.285 45.6686 37.4833 C 45.503 37.4717 45.3335 37.4546 45.1695 37.4348 C 43.8747 34.5994 42.1201 29.9294 41.1274 27.2867 C 40.7179 26.196 40.4986 25.6141 40.3832 25.337 C 40.2115 24.9146 39.2939 22.0309 38.4841 19.4866 C 37.2086 15.4786 35.7629 10.9357 35.2289 9.60061 C 34.3734 7.46234 32.0661 6.08061 29.3505 6.08041 C 28.2549 6.08041 27.2419 6.31505 26.4208 6.75961 C 25.609 7.19899 24.5714 8.16566 24.2385 10.2758 C 24.077 11.3015 24.0854 12.5522 24.2636 13.9938 C 24.3575 14.7525 24.4962 15.5314 24.6519 16.256 C 23.4997 16.4592 22.7652 17.0708 22.3301 17.5991 C 20.2287 20.1512 19.865 23.5857 21.1864 28.4079 C 21.5683 29.8018 22.3247 33.4364 23.3161 38.6423 C 23.4365 39.2739 23.6599 40.3921 23.9189 41.6871 C 24.3005 43.5947 24.865 46.4195 24.9789 47.128 C 24.9745 47.204 24.9683 47.3051 24.9609 47.4289 C 24.5351 54.5823 24.262 64.1314 25.3808 69 C 25.7759 70.7202 25.9531 72.437 26.1411 74.2544 C 26.3881 76.6456 26.6439 79.118 27.4385 81.5491 C 28.3629 84.3766 29.9013 86.7497 32.1421 88.8034 C 34.0457 90.5488 36.8167 91.3615 40.8626 91.3615 C 42.6187 91.3615 44.3559 91.2116 45.8883 91.0793 C 47.0137 90.9824 48.0766 90.8907 48.843 90.8907 C 48.9361 90.8907 49.0244 90.8919 49.1055 90.8946 C 49.6312 90.912 50.2703 90.9676 51.0105 91.0318 C 52.2248 91.1371 53.7359 91.2682 55.3393 91.2682 C 60.0823 91.2682 63.8553 90.0817 66.8735 87.6414 C 72.5711 83.0351 74.4578 78.2524 75.4717 75.6831 C 75.5281 75.5408 75.5817 75.4044 75.6334 75.2754 C 77.5739 70.4264 79.7907 66.9229 81.4099 64.3646 C 82.5707 62.5309 83.409 61.2062 83.7694 60.0035 C 84.0583 59.0414 85.4557 56.4668 87.0755 54.168 C 87.416 53.6852 87.5137 53.1898 87.5623 52.89 C 87.9594 52.1753 88.5282 51.2616 89.0796 50.3757 C 89.6844 49.4043 90.3098 48.3995 90.7562 47.5824 C 91.2757 46.631 92.0609 45.1935 91.1872 43.9007"
         style="fill:#ffffff;fill-opacity:1;fill-rule:nonzero;stroke:none" />
      <path
         id="path29"
         d="M 69.8373 76.4596 C 68.7531 79.2988 66.4075 81.5503 63.7917 83.0265 C 61.1622 84.5051 58.0669 85.2561 55.0572 85.0219 C 57.6576 84.8012 60.1932 84.1732 62.5246 83.0216 C 65.506 81.5603 68.1482 79.3594 69.8373 76.4596 Z M 48.5009 80.2675 C 48.6167 81.527 48.8607 82.7879 49.396 83.9412 C 48.7044 82.8539 48.3442 81.5816 48.1231 80.3189 C 46.849 72.6264 50.0277 60.1197 57.5171 56.4504 C 50.7942 60.7712 47.8568 72.6848 48.5009 80.2675 Z M 40.6248 62.4472 C 44.3541 63.0052 47.2563 67.7251 48.1273 71.1159 C 46.1433 68.0626 43.9731 64.1114 40.6248 62.4472 Z M 39.4695 86.8842 C 33.4712 86.2591 32.6873 82.7419 31.0504 77.7783 C 33.3165 82.0403 33.517 85.287 39.0182 86.3611 C 40.3854 86.6454 41.7846 86.7539 43.1803 86.8669 C 41.9499 86.9867 40.7019 87.0126 39.4695 86.8842 Z M 28.9279 57.1627 C 29.9765 57.3413 31.0492 57.1009 32.0888 56.9426 C 33.1354 56.7618 34.1739 56.5328 35.2091 56.2931 C 39.3455 55.3061 43.4233 54.0763 47.4176 52.6181 C 49.4161 51.8874 51.3837 51.0788 53.331 50.1863 C 51.991 51.0758 50.5628 51.8298 49.1117 52.5238 C 44.7313 54.5534 40.0778 56.0089 35.3313 56.8844 C 34.2748 57.076 33.209 57.2249 32.1371 57.3188 C 31.0753 57.3786 29.9546 57.5044 28.9279 57.1627 Z M 63.0557 52.8367 C 63.5479 52.9145 64.0369 53.0616 64.4638 53.3184 C 63.5427 52.9647 62.5462 53.0144 61.5885 53.1402 C 58.6968 53.5817 55.9541 54.6885 53.2581 55.7902 C 49.63 57.2973 46.1074 59.0087 42.5543 60.6957 C 47.1762 57.5002 57.4588 52.089 63.0557 52.8367 Z M 31.0504 23.1114 C 32.3833 22.1055 34.3822 21.4251 36.0528 21.4191 C 34.7221 22.4283 32.7208 23.1015 31.0504 23.1114 Z M 59.6545 16.6988 C 57.8189 16.9448 55.5076 16.5756 53.8356 15.7784 C 55.6712 15.5364 57.9839 15.8978 59.6545 16.6988 Z M 83.9289 49.988 L 83.9365 49.9601 L 83.9518 49.9353 C 84.6165 48.8658 86.7302 45.5234 87.5252 44.9664 C 85.9603 44.427 83.5736 44.107 81.4473 45.1012 C 78.5085 46.4752 76.9968 48.4428 75.3796 51.3767 L 75.2887 51.5415 L 75.2034 51.599 C 75.5126 52.26 75.8483 52.9113 76.2994 53.4743 C 75.7344 53.0283 75.2552 52.4643 74.8007 51.8844 C 72.0986 53.931 68.1668 59.4543 68.1257 59.5121 L 66.9896 61.1141 C 66.123 62.8485 65.5092 64.7276 65.3798 66.6626 C 65.3604 66.0268 65.3778 65.3847 65.4601 64.7484 C 65.6722 63.1196 66.1317 61.5443 66.7806 60.0364 L 66.7511 59.614 C 65.2604 59.9956 63.8091 60.7962 63.1083 62.2086 C 63.263 61.768 63.4801 61.3402 63.7758 60.9624 C 64.5335 60.0213 65.5793 59.3622 66.7039 58.9264 C 66.5576 56.7893 65.747 44.7336 65.9796 42.9882 C 66.1483 41.7243 66.6313 35.4036 66.8921 30.8067 C 65.1557 31.0246 63.0557 30.7369 61.495 30.0581 C 63.167 29.7669 65.2689 29.9792 66.904 30.5962 C 67.0302 28.3393 67.0994 26.5338 67.0458 26.011 C 66.9144 24.7332 66.9946 22.5196 67.093 20.1295 C 65.4155 20.5224 63.2981 20.4002 61.7029 19.8161 C 63.3458 19.3877 65.4651 19.4688 67.0976 20.0205 C 67.1028 19.8955 67.1078 19.7701 67.113 19.6441 C 67.2505 16.3362 67.4214 12.2195 66.9776 10.8882 C 66.8078 10.3791 66.364 9.99394 65.6591 9.74395 C 64.2295 9.23679 62.3612 9.50751 62.0163 9.71703 L 61.8365 9.86675 C 61.6808 12.6505 61.0109 24.1527 60.4803 25.9483 C 60.2711 26.6562 59.0379 35.2075 58.2295 40.9957 C 59.9272 41.4452 61.4992 42.1771 62.46 43.2394 C 60.9382 42.4641 59.3306 42.079 57.6935 41.6673 C 56.0464 41.2656 54.3986 40.9341 52.7521 40.4784 C 53.9815 40.3703 55.5427 40.4461 57.0886 40.7383 C 57.3751 38.6904 58.3743 31.5836 58.9632 27.8636 C 56.6387 27.9057 54.3459 27.382 52.1732 26.5848 C 52.775 26.4757 53.402 26.516 54.0072 26.5555 C 55.7137 26.7158 57.405 27.0457 58.9843 27.7295 C 59.1599 26.6251 59.2969 25.8418 59.3631 25.6183 C 59.8218 24.0646 60.4876 13.2512 60.7053 9.21586 L 60.7484 9.21805 L 60.7536 9.0805 C 60.7769 8.48762 60.8062 7.95195 60.8319 7.47948 C 61.0044 4.31155 61.0225 3.98082 58.9642 3.10406 C 57.0601 2.29348 54.4616 3.77728 54.1595 4.45668 C 53.9402 4.99154 53.6673 8.51154 53.4867 10.8408 C 53.3063 13.1647 53.1506 15.172 52.9857 15.9413 C 52.8944 16.3673 52.5537 18.0678 52.0825 20.4216 C 49.696 32.3336 48.3561 38.8983 48.1075 39.4782 C 48.0844 39.5324 48.0563 39.5825 48.026 39.6309 C 48.9935 39.7324 49.9605 39.8532 50.926 40.0332 C 49.764 40.1443 48.6035 40.1742 47.4437 40.1839 C 47.3887 40.1827 47.335 40.1829 47.2804 40.1823 C 46.7551 40.3705 46.0578 40.3986 45.324 40.3406 C 45.1952 40.3622 45.066 40.3851 44.9358 40.411 C 42.3891 40.8595 39.8732 41.5858 37.2998 41.9036 C 39.2155 41.141 41.1858 40.4198 43.209 39.9625 L 43.0619 39.6682 C 41.9609 37.4657 40.387 33.421 39.2225 30.3496 C 38.3777 30.7096 37.5019 30.9742 36.6116 31.2064 C 35.3881 31.5064 34.1605 31.7435 32.8878 31.7503 C 34.0098 31.15 35.2021 30.773 36.4206 30.4537 C 37.2988 30.2372 38.1797 30.0555 39.0776 29.9672 C 38.8463 29.3556 38.6334 28.7888 38.4472 28.2933 C 38.1087 27.3926 37.8418 26.6813 37.7405 26.4383 C 37.545 25.9694 36.859 23.8209 35.7558 20.354 C 34.5572 16.589 33.0661 11.9026 32.5707 10.6638 C 32.2411 9.84043 31.4834 9.4184 30.9061 9.20948 C 29.8652 8.8329 28.5521 8.86141 27.7834 9.27726 C 27.0713 9.66281 26.8163 11.285 27.1016 13.6162 C 27.3659 15.7778 27.9809 17.7789 28.1089 18.0447 C 28.2698 18.3662 28.2373 18.628 28.1663 18.8082 C 28.9175 21.0707 31.5081 28.8776 31.919 30.2134 C 32.3869 31.7339 35.0365 43.9689 35.247 44.9417 C 35.3622 44.9423 35.4777 44.9451 35.5929 44.9501 C 35.8955 44.969 36.2318 44.9953 36.5161 45.1096 C 36.4019 45.1271 36.1796 45.1772 36.0693 45.2102 C 33.8864 45.8125 31.656 46.3187 29.3732 46.2435 C 30.4826 45.7011 31.6586 45.3962 32.8601 45.1708 C 33.2594 45.1 33.6623 45.0418 34.0674 45.0013 C 33.8679 44.0801 33.1035 40.5595 32.3578 37.2072 C 30.8933 37.9683 28.9965 38.4097 27.4138 38.3411 C 28.7624 37.5034 30.6373 36.9572 32.2904 36.9048 C 31.6327 33.9531 31.0032 31.1988 30.8054 30.5561 C 30.7097 30.2457 30.4904 29.5671 30.2014 28.6828 C 28.9177 29.4603 27.22 29.9381 25.7811 29.9098 C 26.9389 29.0574 28.6001 28.4689 30.0967 28.363 C 29.183 25.5725 27.7003 21.1029 27.1126 19.3325 C 26.9557 19.3108 26.795 19.2719 26.6359 19.2336 C 26.222 19.1333 25.8201 19.0484 25.4659 19.0484 C 25.0893 19.0484 24.7666 19.1441 24.5401 19.419 C 23.6227 20.5332 22.5629 22.5987 23.9472 27.6511 C 24.4611 29.5267 25.417 34.372 26.1283 38.1067 C 26.2464 38.7257 26.4798 39.8927 26.7268 41.1281 C 27.6383 45.6875 27.848 46.7947 27.848 47.0505 C 27.848 47.1041 27.8436 47.1825 27.8187 47.5991 C 27.2324 57.446 27.3576 64.8189 28.1709 68.3593 C 28.6053 70.2507 28.8003 72.1364 28.9889 73.9599 C 29.4625 78.5439 29.9101 82.8738 34.0766 86.6935 C 36.6008 89.0074 41.8263 88.5566 45.6417 88.2273 C 47.0434 88.1061 48.2539 88.0024 49.2006 88.0331 C 49.8028 88.0535 50.5098 88.1147 51.2575 88.1796 C 54.9968 88.5038 60.6473 88.994 65.0738 85.415 C 70.1846 81.2828 71.8271 77.1199 72.8087 74.6321 C 72.8665 74.4854 72.922 74.3451 72.9756 74.2119 C 73.3958 73.1607 73.8276 72.1731 74.2626 71.2423 C 71.8682 70.367 70.0237 68.4111 68.7684 66.2473 C 70.1984 68.2177 72.1865 69.9724 74.5929 70.5472 C 76.1605 67.3065 77.7461 64.8004 78.9909 62.8338 C 79.2497 62.4251 79.4937 62.0387 79.7185 61.6761 C 79.4438 61.6091 79.1705 61.53 78.8904 61.4584 C 78.2515 61.2742 77.6221 61.0711 76.9993 60.8516 C 77.6524 60.9451 78.3075 61.0214 78.9602 61.0764 C 79.3111 61.0958 79.685 61.1325 80.0507 61.1325 C 80.1792 60.9182 80.2989 60.7136 80.4079 60.5195 L 78.9811 59.063 L 80.6794 60.0105 C 80.8357 59.6999 80.9551 59.422 81.0275 59.181 C 81.0845 58.991 81.1643 58.7727 81.2621 58.5325 C 81.0452 58.2432 80.7604 57.9833 80.5217 57.7383 C 80.0407 57.2861 79.5206 56.8623 78.9811 56.4652 C 79.6466 56.8009 80.7426 57.3238 81.5135 57.9585 C 82.2085 56.4568 83.4297 54.3754 84.7138 52.5499 C 84.7241 52.5096 84.7367 52.4311 84.745 52.3766 C 84.7462 52.3699 84.7474 52.3621 84.7486 52.3551 C 83.5354 51.5473 83.9245 50.0061 83.9289 49.988"
         style="fill:#efc59a;fill-opacity:1;fill-rule:nonzero;stroke:none" />
      <path
         id="path30"
         d="M 84.3134 51.1143 C 84.4291 51.5499 84.7269 52.0124 85.4288 52.2598 L 85.9816 51.3972 C 85.6023 50.9792 84.883 51.0723 84.3134 51.1143"
         style="fill:#f9e7d5;fill-opacity:1;fill-rule:nonzero;stroke:none" />
      <path
         id="path31"
         d="M 86.0032 51.3635 L 89.4685 45.957 C 89.4721 45.9078 89.4418 45.8492 89.378 45.7828 C 89.0515 45.4423 88.1227 45.1823 87.7629 45.2695 C 87.4054 45.3895 85.7237 47.8224 84.2985 50.114 C 84.2796 50.1965 84.2307 50.4493 84.254 50.7595 C 84.8535 50.8227 85.6673 50.8476 86.0032 51.3635"
         style="fill:#f9e7d5;fill-opacity:1;fill-rule:nonzero;stroke:none" />
      <path
         id="path32"
         d="M 39.0182 86.3611 C 40.3854 86.6454 41.7846 86.7539 43.1803 86.8669 C 41.9499 86.9867 40.7019 87.0126 39.4695 86.8842 C 33.4712 86.2591 32.6873 82.7419 31.0504 77.7783 C 33.3165 82.0403 33.517 85.287 39.0182 86.3611 Z M 69.8373 76.4596 C 68.7531 79.2988 66.4075 81.5503 63.7917 83.0265 C 61.1622 84.5051 58.0669 85.2561 55.0572 85.0219 C 57.6576 84.8012 60.1932 84.1732 62.5246 83.0216 C 65.506 81.5603 68.1482 79.3594 69.8373 76.4596 Z M 48.1273 71.1159 C 46.1433 68.0626 43.9731 64.1114 40.6248 62.4472 C 44.3541 63.0052 47.2563 67.7251 48.1273 71.1159 Z M 53.8356 15.7784 C 55.6712 15.5364 57.9839 15.8978 59.6545 16.6988 C 57.8189 16.9448 55.5076 16.5756 53.8356 15.7784 Z M 36.0528 21.4191 C 34.7221 22.4283 32.7208 23.1015 31.0504 23.1114 C 32.3833 22.1055 34.3822 21.4251 36.0528 21.4191 Z M 48.5009 80.2675 C 48.6167 81.527 48.8607 82.7879 49.396 83.9412 C 48.7044 82.8539 48.3442 81.5816 48.1231 80.3189 C 46.849 72.6264 50.0277 60.1197 57.5171 56.4504 C 50.7942 60.7712 47.8568 72.6848 48.5009 80.2675 Z M 42.5543 60.6957 C 47.1762 57.5002 57.4588 52.089 63.0557 52.8367 C 63.5479 52.9145 64.0369 53.0616 64.4638 53.3184 C 63.5427 52.9647 62.5462 53.0144 61.5885 53.1402 C 58.6968 53.5817 55.9541 54.6885 53.2581 55.7902 C 49.63 57.2973 46.1074 59.0087 42.5543 60.6957 Z M 32.1371 57.3188 C 31.0753 57.3786 29.9546 57.5044 28.9279 57.1627 C 29.9765 57.3413 31.0492 57.1009 32.0888 56.9426 C 33.1354 56.7618 34.1739 56.5328 35.2091 56.2931 C 39.3455 55.3061 43.4233 54.0763 47.4176 52.6181 C 49.4161 51.8874 51.3837 51.0788 53.331 50.1863 C 51.991 51.0758 50.5628 51.8298 49.1117 52.5238 C 44.7313 54.5534 40.0778 56.0089 35.3313 56.8844 C 34.2748 57.076 33.209 57.2249 32.1371 57.3188 Z M 84.745 52.3766 C 84.7367 52.4311 84.7241 52.5096 84.7138 52.5499 C 83.4297 54.3754 82.2085 56.4568 81.5135 57.9585 C 80.7426 57.3238 79.6466 56.8009 78.9811 56.4652 C 79.5206 56.8623 80.0407 57.2861 80.5217 57.7383 C 80.7604 57.9833 81.0452 58.2432 81.2621 58.5325 C 81.1643 58.7727 81.0845 58.991 81.0275 59.181 C 80.9551 59.422 80.8357 59.6999 80.6794 60.0105 L 78.9811 59.063 L 80.4079 60.5195 C 80.2989 60.7136 80.1792 60.9182 80.0507 61.1325 C 79.685 61.1325 79.3111 61.0958 78.9602 61.0764 C 78.3075 61.0214 77.6524 60.9451 76.9993 60.8516 C 77.6221 61.0711 78.2515 61.2742 78.8904 61.4584 C 79.1705 61.53 79.4438 61.6091 79.7185 61.6761 C 79.4937 62.0387 79.2497 62.4251 78.9909 62.8338 C 77.7461 64.8004 76.1605 67.3065 74.5929 70.5472 C 72.1865 69.9724 70.1984 68.2177 68.7684 66.2473 C 70.0237 68.4111 71.8682 70.367 74.2626 71.2423 C 73.8276 72.1731 73.3958 73.1607 72.9756 74.2119 C 72.922 74.3451 72.8665 74.4854 72.8087 74.6321 C 71.8271 77.1199 70.1846 81.2828 65.0738 85.415 C 60.6473 88.994 54.9968 88.5038 51.2575 88.1796 C 50.5098 88.1147 49.8028 88.0535 49.2006 88.0331 C 48.2539 88.0024 47.0434 88.1061 45.6417 88.2273 C 41.8263 88.5566 36.6008 89.0074 34.0766 86.6935 C 29.9101 82.8738 29.4625 78.5439 28.9889 73.9599 C 28.8003 72.1364 28.6053 70.2507 28.1709 68.3593 C 27.3576 64.8189 27.2324 57.446 27.8187 47.5991 C 27.8436 47.1825 27.848 47.1041 27.848 47.0505 C 27.848 46.7947 27.6383 45.6875 26.7268 41.1281 C 26.4798 39.8927 26.2464 38.7257 26.1283 38.1067 C 25.417 34.372 24.4611 29.5267 23.9472 27.6511 C 22.5629 22.5987 23.6227 20.5332 24.5401 19.419 C 24.7666 19.1441 25.0893 19.0484 25.4659 19.0484 C 25.8201 19.0484 26.222 19.1333 26.6359 19.2336 C 26.795 19.2719 26.9557 19.3108 27.1126 19.3325 C 27.7003 21.1029 29.183 25.5725 30.0967 28.363 C 28.6001 28.4689 26.9389 29.0574 25.7811 29.9098 C 27.22 29.9381 28.9177 29.4603 30.2014 28.6828 C 30.4904 29.5671 30.7097 30.2457 30.8054 30.5561 C 31.0032 31.1988 31.6327 33.9531 32.2904 36.9048 C 30.6373 36.9572 28.7624 37.5034 27.4138 38.3411 C 28.9965 38.4097 30.8933 37.9683 32.3578 37.2072 C 33.1035 40.5595 33.8679 44.0801 34.0674 45.0013 C 33.6623 45.0418 33.2594 45.1 32.8601 45.1708 C 31.6586 45.3962 30.4826 45.7011 29.3732 46.2435 C 31.656 46.3187 33.8864 45.8125 36.0693 45.2102 C 36.1796 45.1772 36.4019 45.1271 36.5161 45.1096 C 36.2318 44.9953 35.8955 44.969 35.5929 44.9501 C 35.4777 44.9451 35.3622 44.9423 35.247 44.9417 C 35.0365 43.9689 32.3869 31.7339 31.919 30.2134 C 31.5081 28.8776 28.9175 21.0707 28.1663 18.8082 C 28.2373 18.628 28.2698 18.3662 28.1089 18.0447 C 27.9809 17.7789 27.3659 15.7778 27.1016 13.6162 C 26.8163 11.285 27.0713 9.66281 27.7834 9.27726 C 28.5521 8.86141 29.8652 8.8329 30.9061 9.20948 C 31.4834 9.4184 32.2411 9.84043 32.5707 10.6638 C 33.0661 11.9026 34.5572 16.589 35.7558 20.354 C 36.859 23.8209 37.545 25.9694 37.7405 26.4383 C 37.8418 26.6813 38.1087 27.3926 38.4472 28.2933 C 38.6334 28.7888 38.8463 29.3556 39.0776 29.9672 C 38.1797 30.0555 37.2988 30.2372 36.4206 30.4537 C 35.2021 30.773 34.0098 31.15 32.8878 31.7503 C 34.1605 31.7435 35.3881 31.5064 36.6116 31.2064 C 37.5019 30.9742 38.3777 30.7096 39.2225 30.3496 C 40.387 33.421 41.9609 37.4657 43.0619 39.6682 L 43.209 39.9625 C 41.1858 40.4198 39.2155 41.141 37.2998 41.9036 C 39.8732 41.5858 42.3891 40.8595 44.9358 40.411 C 45.066 40.3851 45.1952 40.3622 45.324 40.3406 C 46.0578 40.3986 46.7551 40.3705 47.2804 40.1823 C 47.335 40.1829 47.3887 40.1827 47.4437 40.1839 C 48.6035 40.1742 49.764 40.1443 50.926 40.0332 C 49.9605 39.8532 48.9935 39.7324 48.026 39.6309 C 48.0563 39.5825 48.0844 39.5324 48.1075 39.4782 C 48.3561 38.8983 49.696 32.3336 52.0825 20.4216 C 52.5537 18.0678 52.8944 16.3673 52.9857 15.9413 C 53.1506 15.172 53.3063 13.1647 53.4867 10.8408 C 53.6673 8.51154 53.9402 4.99154 54.1595 4.45668 C 54.4616 3.77728 57.0601 2.29348 58.9642 3.10406 C 61.0225 3.98082 61.0044 4.31155 60.8319 7.47948 C 60.8062 7.95195 60.7769 8.48762 60.7536 9.0805 L 60.7484 9.21805 L 60.7053 9.21586 C 60.4876 13.2512 59.8218 24.0646 59.3631 25.6183 C 59.2969 25.8418 59.1599 26.6251 58.9843 27.7295 C 57.405 27.0457 55.7137 26.7158 54.0072 26.5555 C 53.402 26.516 52.775 26.4757 52.1732 26.5848 C 54.3459 27.382 56.6387 27.9057 58.9632 27.8636 C 58.3743 31.5836 57.3751 38.6904 57.0886 40.7383 C 55.5427 40.4461 53.9815 40.3703 52.7521 40.4784 C 54.3986 40.9341 56.0464 41.2656 57.6935 41.6673 C 59.3306 42.079 60.9382 42.4641 62.46 43.2394 C 61.4992 42.1771 59.9272 41.4452 58.2295 40.9957 C 59.0379 35.2075 60.2711 26.6562 60.4803 25.9483 C 61.0109 24.1527 61.6808 12.6505 61.8365 9.86675 L 62.0163 9.71703 C 62.3612 9.50751 64.2295 9.23679 65.6591 9.74395 C 66.364 9.99394 66.8078 10.3791 66.9776 10.8882 C 67.4214 12.2195 67.2505 16.3362 67.113 19.6441 C 67.1078 19.7701 67.1028 19.8955 67.0976 20.0205 C 65.4651 19.4688 63.3458 19.3877 61.7029 19.8161 C 63.2981 20.4002 65.4155 20.5224 67.093 20.1295 C 66.9946 22.5196 66.9144 24.7332 67.0458 26.011 C 67.0994 26.5338 67.0302 28.3393 66.904 30.5962 C 65.2689 29.9792 63.167 29.7669 61.495 30.0581 C 63.0557 30.7369 65.1557 31.0246 66.8921 30.8067 C 66.6313 35.4036 66.1483 41.7243 65.9796 42.9882 C 65.747 44.7336 66.5576 56.7893 66.7039 58.9264 C 65.5793 59.3622 64.5335 60.0213 63.7758 60.9624 C 63.4801 61.3402 63.263 61.768 63.1083 62.2086 C 63.8091 60.7962 65.2604 59.9956 66.7511 59.614 L 66.7806 60.0364 C 66.1317 61.5443 65.6722 63.1196 65.4601 64.7484 C 65.3778 65.3847 65.3604 66.0268 65.3798 66.6626 C 65.5092 64.7276 66.123 62.8485 66.9896 61.1141 L 68.1257 59.5121 C 68.1668 59.4543 72.0986 53.931 74.8007 51.8844 C 75.2552 52.4643 75.7344 53.0283 76.2994 53.4743 C 75.8483 52.9113 75.5126 52.26 75.2034 51.599 L 75.2887 51.5415 L 75.3796 51.3767 C 76.9968 48.4428 78.5085 46.4752 81.4473 45.1012 C 83.5736 44.107 85.9603 44.427 87.5252 44.9664 C 86.7302 45.5234 84.6165 48.8658 83.9518 49.9353 L 83.9365 49.9601 L 83.9289 49.988 C 83.9245 50.0061 83.5354 51.5473 84.7486 52.3551 C 84.7474 52.3621 84.7462 52.3699 84.745 52.3766 Z M 85.9816 51.3972 L 85.4288 52.2598 C 84.7269 52.0124 84.4291 51.5499 84.3134 51.1143 C 84.883 51.0723 85.6023 50.9792 85.9816 51.3972 Z M 84.2985 50.114 C 85.7237 47.8224 87.4054 45.3895 87.7629 45.2695 C 88.1227 45.1823 89.0515 45.4423 89.378 45.7828 C 89.4418 45.8492 89.4721 45.9078 89.4685 45.957 L 86.0032 51.3635 C 85.6673 50.8476 84.8535 50.8227 84.254 50.7595 C 84.2307 50.4493 84.2796 50.1965 84.2985 50.114 Z M 90.1023 44.6337 L 90.0333 44.5312 L 89.9354 44.4555 C 88.525 43.3582 84.3942 42.0084 80.7895 43.6936 C 77.5382 45.2136 75.8064 47.4157 74.1079 50.4662 C 72.1383 51.8623 69.6183 54.9537 68.1255 56.904 C 67.7625 51.3607 67.3725 44.2972 67.5197 43.1936 C 67.7669 41.3406 68.7814 27.7008 68.5912 25.8522 C 68.4624 24.5996 68.5609 22.2239 68.6653 19.7085 C 68.8228 15.9183 68.9853 11.9988 68.4516 10.3968 C 68.0944 9.3257 67.1889 8.5552 65.8325 8.16945 C 64.7686 7.86663 63.4022 7.83035 62.359 8.01495 C 62.3673 7.85885 62.3755 7.70854 62.3833 7.56401 C 62.5599 4.32032 62.6329 2.97767 59.5726 1.67469 C 56.868 0.523218 53.3789 2.38758 52.7399 3.82552 C 52.4477 4.48279 52.2627 6.52916 51.9377 10.7206 C 51.7763 12.799 51.6096 14.9481 51.4665 15.6155 C 51.3732 16.0519 51.0317 17.7568 50.559 20.1163 C 49.4342 25.7308 47.1379 37.1944 46.7121 38.752 C 46.3405 38.8608 45.2982 38.808 44.2835 38.6306 C 42.9451 35.8478 40.9786 30.6133 39.9017 27.7468 C 39.5445 26.7961 39.2865 26.1091 39.1745 25.8408 C 38.9953 25.4102 38.1408 22.7253 37.2362 19.8829 C 35.9677 15.8964 34.5295 11.3779 34.0132 10.0868 C 33.5892 9.02727 32.6733 8.19676 31.4346 7.74861 C 29.9683 7.21793 28.204 7.28312 27.044 7.91088 C 24.4306 9.3253 25.6152 15.0645 26.3349 17.5792 C 25.4348 17.4215 24.194 17.3956 23.3408 18.4314 C 21.5334 20.6261 21.2501 23.6864 22.4489 28.0618 C 22.8394 29.4868 23.6041 33.1573 24.6023 38.3973 C 24.7215 39.0235 24.9555 40.1939 25.2033 41.4327 C 25.6174 43.504 26.2394 46.6145 26.2932 47.0674 C 26.2902 47.1372 26.2809 47.2871 26.2677 47.5068 C 25.8473 54.5745 25.5731 63.9898 26.6568 68.7069 C 27.0697 70.5055 27.2599 72.3428 27.4433 74.1198 C 27.9261 78.7907 28.4253 83.6202 33.0268 87.8385 C 34.9524 89.6038 37.9257 90.0502 40.8909 90.0502 C 42.5876 90.0502 44.2823 89.9039 45.7753 89.7749 C 47.1275 89.6583 48.2951 89.5584 49.1488 89.5859 C 49.7098 89.6048 50.365 89.6616 51.1238 89.7276 C 55.1113 90.0729 61.1371 90.5956 66.0508 86.6233 C 71.4794 82.2337 73.2844 77.6599 74.2538 75.2025 C 74.3109 75.058 74.3655 74.92 74.4179 74.7888 C 76.4031 69.8281 78.6576 66.2656 80.3038 63.6647 C 81.4085 61.9191 82.2065 60.658 82.5155 59.6275 C 82.8394 58.5478 84.2335 55.9283 86.0054 53.4141 C 86.1979 53.1414 86.2452 52.8385 86.2801 52.6177 C 86.2884 52.5642 86.3006 52.4857 86.3104 52.4506 C 86.7272 51.6775 87.358 50.6642 87.9682 49.6842 C 90.1238 46.221 90.5793 45.3396 90.1023 44.6337"
         style="fill:#100f0d;fill-opacity:1;fill-rule:nonzero;stroke:none" />
    </g>
  </g>
</svg>
